<mxfile host="app.diagrams.net" modified="2022-07-27T09:41:04.260Z" agent="5.0 (Windows NT 10.0; Win64; x64) AppleWebKit/537.36 (KHTML, like Gecko) Chrome/103.0.0.0 Safari/537.36" etag="L09lUr5d_3VjIkL8kiw9" version="20.2.1" type="github" pages="2">
  <diagram name="运输管理流程图" id="WYNXcbocSDmFea5nudXT">
    <mxGraphModel dx="1022" dy="468" grid="1" gridSize="10" guides="1" tooltips="1" connect="1" arrows="1" fold="1" page="1" pageScale="1" pageWidth="827" pageHeight="1169" math="0" shadow="0">
      <root>
        <mxCell id="0" />
        <mxCell id="1" parent="0" />
        <mxCell id="yfq_gSdc3L_xYtssrIaD-1" value="运输管理" style="swimlane;html=1;childLayout=stackLayout;startSize=20;rounded=0;shadow=0;labelBackgroundColor=none;strokeWidth=1;fontFamily=Verdana;fontSize=8;align=center;" parent="1" vertex="1">
          <mxGeometry x="70" y="40" width="960" height="750" as="geometry" />
        </mxCell>
        <mxCell id="yfq_gSdc3L_xYtssrIaD-2" value="仓储" style="swimlane;html=1;startSize=20;" parent="yfq_gSdc3L_xYtssrIaD-1" vertex="1">
          <mxGeometry y="20" width="160" height="730" as="geometry" />
        </mxCell>
        <mxCell id="yfq_gSdc3L_xYtssrIaD-3" value="导入/上游/app申领" style="rounded=1;whiteSpace=wrap;html=1;shadow=0;labelBackgroundColor=none;strokeWidth=1;fontFamily=Verdana;fontSize=8;align=center;" parent="yfq_gSdc3L_xYtssrIaD-2" vertex="1">
          <mxGeometry x="20" y="65" width="100" height="60" as="geometry" />
        </mxCell>
        <mxCell id="yfq_gSdc3L_xYtssrIaD-4" value="状态变更，申领单扣减库存等" style="rounded=1;whiteSpace=wrap;html=1;shadow=0;labelBackgroundColor=none;strokeWidth=1;fontFamily=Verdana;fontSize=8;align=center;" parent="yfq_gSdc3L_xYtssrIaD-2" vertex="1">
          <mxGeometry x="20" y="300" width="100" height="60" as="geometry" />
        </mxCell>
        <mxCell id="yfq_gSdc3L_xYtssrIaD-5" value="上游/app申领" style="rounded=1;whiteSpace=wrap;html=1;shadow=0;labelBackgroundColor=none;strokeWidth=1;fontFamily=Verdana;fontSize=8;align=center;" parent="yfq_gSdc3L_xYtssrIaD-2" vertex="1">
          <mxGeometry x="20" y="400" width="100" height="60" as="geometry" />
        </mxCell>
        <mxCell id="yfq_gSdc3L_xYtssrIaD-6" value="运输排期" style="swimlane;html=1;startSize=20;" parent="yfq_gSdc3L_xYtssrIaD-1" vertex="1">
          <mxGeometry x="160" y="20" width="160" height="730" as="geometry" />
        </mxCell>
        <mxCell id="yfq_gSdc3L_xYtssrIaD-7" value="排期单" style="rounded=1;whiteSpace=wrap;html=1;shadow=0;labelBackgroundColor=none;strokeWidth=1;fontFamily=Verdana;fontSize=8;align=center;" parent="yfq_gSdc3L_xYtssrIaD-6" vertex="1">
          <mxGeometry x="30" y="65" width="100" height="60" as="geometry" />
        </mxCell>
        <object label="" id="yfq_gSdc3L_xYtssrIaD-8">
          <mxCell style="edgeStyle=none;rounded=0;orthogonalLoop=1;jettySize=auto;html=1;exitX=0.5;exitY=1;exitDx=0;exitDy=0;entryX=0.5;entryY=0;entryDx=0;entryDy=0;" parent="yfq_gSdc3L_xYtssrIaD-6" source="yfq_gSdc3L_xYtssrIaD-7" target="yfq_gSdc3L_xYtssrIaD-10" edge="1">
            <mxGeometry relative="1" as="geometry">
              <mxPoint x="80.00201698748856" y="155.00268889486415" as="targetPoint" />
            </mxGeometry>
          </mxCell>
        </object>
        <mxCell id="yfq_gSdc3L_xYtssrIaD-9" value="提交" style="edgeLabel;html=1;align=center;verticalAlign=middle;resizable=0;points=[];" parent="yfq_gSdc3L_xYtssrIaD-8" vertex="1" connectable="0">
          <mxGeometry x="-0.4963" relative="1" as="geometry">
            <mxPoint as="offset" />
          </mxGeometry>
        </mxCell>
        <mxCell id="yfq_gSdc3L_xYtssrIaD-10" value="是否外部" style="rhombus;whiteSpace=wrap;html=1;rounded=0;shadow=0;labelBackgroundColor=none;strokeWidth=1;fontFamily=Verdana;fontSize=8;align=center;" parent="yfq_gSdc3L_xYtssrIaD-6" vertex="1">
          <mxGeometry x="40" y="150" width="80" height="60" as="geometry" />
        </mxCell>
        <mxCell id="yfq_gSdc3L_xYtssrIaD-11" value="修改日期时间，&lt;br&gt;状态修改为待提交" style="rounded=1;whiteSpace=wrap;html=1;shadow=0;labelBackgroundColor=none;strokeWidth=1;fontFamily=Verdana;fontSize=8;align=center;" parent="yfq_gSdc3L_xYtssrIaD-6" vertex="1">
          <mxGeometry x="40" y="400" width="100" height="60" as="geometry" />
        </mxCell>
        <mxCell id="yfq_gSdc3L_xYtssrIaD-12" value="取消/删除排期单" style="rounded=1;whiteSpace=wrap;html=1;shadow=0;labelBackgroundColor=none;strokeWidth=1;fontFamily=Verdana;fontSize=8;align=center;" parent="yfq_gSdc3L_xYtssrIaD-6" vertex="1">
          <mxGeometry x="40" y="570" width="100" height="60" as="geometry" />
        </mxCell>
        <mxCell id="yfq_gSdc3L_xYtssrIaD-13" value="智能排线" style="swimlane;html=1;startSize=20;" parent="yfq_gSdc3L_xYtssrIaD-1" vertex="1">
          <mxGeometry x="320" y="20" width="160" height="730" as="geometry" />
        </mxCell>
        <mxCell id="yfq_gSdc3L_xYtssrIaD-14" value="排线单(外部)" style="rounded=1;whiteSpace=wrap;html=1;shadow=0;labelBackgroundColor=none;strokeWidth=1;fontFamily=Verdana;fontSize=8;align=center;" parent="yfq_gSdc3L_xYtssrIaD-13" vertex="1">
          <mxGeometry x="30" y="150" width="100" height="60" as="geometry" />
        </mxCell>
        <mxCell id="yfq_gSdc3L_xYtssrIaD-15" value="排线单(内部)" style="rounded=1;whiteSpace=wrap;html=1;shadow=0;labelBackgroundColor=none;strokeWidth=1;fontFamily=Verdana;fontSize=8;align=center;" parent="yfq_gSdc3L_xYtssrIaD-13" vertex="1">
          <mxGeometry x="30" y="220" width="100" height="60" as="geometry" />
        </mxCell>
        <mxCell id="yfq_gSdc3L_xYtssrIaD-16" value="删除排线、排线子表&lt;br&gt;、排线任务表" style="rounded=1;whiteSpace=wrap;html=1;shadow=0;labelBackgroundColor=none;strokeWidth=1;fontFamily=Verdana;fontSize=8;align=center;" parent="yfq_gSdc3L_xYtssrIaD-13" vertex="1">
          <mxGeometry x="30" y="400" width="110" height="60" as="geometry" />
        </mxCell>
        <mxCell id="yfq_gSdc3L_xYtssrIaD-17" value="修改排线子表&lt;br&gt;联系人" style="rounded=1;whiteSpace=wrap;html=1;shadow=0;labelBackgroundColor=none;strokeWidth=1;fontFamily=Verdana;fontSize=8;align=center;" parent="yfq_gSdc3L_xYtssrIaD-13" vertex="1">
          <mxGeometry x="30" y="480" width="110" height="60" as="geometry" />
        </mxCell>
        <mxCell id="yfq_gSdc3L_xYtssrIaD-18" value="删除排线、排线子表&lt;br&gt;、排线任务表" style="rounded=1;whiteSpace=wrap;html=1;shadow=0;labelBackgroundColor=none;strokeWidth=1;fontFamily=Verdana;fontSize=8;align=center;" parent="yfq_gSdc3L_xYtssrIaD-13" vertex="1">
          <mxGeometry x="30" y="570" width="110" height="60" as="geometry" />
        </mxCell>
        <mxCell id="yfq_gSdc3L_xYtssrIaD-19" value="运输排车" style="swimlane;html=1;startSize=20;" parent="yfq_gSdc3L_xYtssrIaD-1" vertex="1">
          <mxGeometry x="480" y="20" width="160" height="730" as="geometry">
            <mxRectangle x="480" y="20" width="40" height="730" as="alternateBounds" />
          </mxGeometry>
        </mxCell>
        <mxCell id="yfq_gSdc3L_xYtssrIaD-20" style="rounded=0;orthogonalLoop=1;jettySize=auto;html=1;exitX=1;exitY=0.5;exitDx=0;exitDy=0;" parent="yfq_gSdc3L_xYtssrIaD-19" edge="1">
          <mxGeometry relative="1" as="geometry">
            <mxPoint x="-30" y="180" as="sourcePoint" />
            <mxPoint x="360" y="180" as="targetPoint" />
          </mxGeometry>
        </mxCell>
        <mxCell id="yfq_gSdc3L_xYtssrIaD-21" value="同时创建" style="edgeLabel;html=1;align=center;verticalAlign=middle;resizable=0;points=[];" parent="yfq_gSdc3L_xYtssrIaD-20" vertex="1" connectable="0">
          <mxGeometry x="-0.4512" y="-2" relative="1" as="geometry">
            <mxPoint as="offset" />
          </mxGeometry>
        </mxCell>
        <mxCell id="yfq_gSdc3L_xYtssrIaD-22" value="配送任务单(内部)" style="swimlane;html=1;startSize=20;" parent="yfq_gSdc3L_xYtssrIaD-1" vertex="1">
          <mxGeometry x="640" y="20" width="160" height="730" as="geometry" />
        </mxCell>
        <mxCell id="yfq_gSdc3L_xYtssrIaD-23" value="承运单(内部)" style="rounded=1;whiteSpace=wrap;html=1;shadow=0;labelBackgroundColor=none;strokeWidth=1;fontFamily=Verdana;fontSize=8;align=center;" parent="yfq_gSdc3L_xYtssrIaD-22" vertex="1">
          <mxGeometry x="-100" y="220" width="210" height="60" as="geometry" />
        </mxCell>
        <mxCell id="yfq_gSdc3L_xYtssrIaD-24" value="外部承运" style="swimlane;html=1;startSize=20;" parent="yfq_gSdc3L_xYtssrIaD-1" vertex="1">
          <mxGeometry x="800" y="20" width="160" height="730" as="geometry" />
        </mxCell>
        <mxCell id="yfq_gSdc3L_xYtssrIaD-25" value="承运单(外部)" style="rounded=1;whiteSpace=wrap;html=1;shadow=0;labelBackgroundColor=none;strokeWidth=1;fontFamily=Verdana;fontSize=8;align=center;" parent="yfq_gSdc3L_xYtssrIaD-24" vertex="1">
          <mxGeometry x="40" y="150" width="100" height="60" as="geometry" />
        </mxCell>
        <mxCell id="yfq_gSdc3L_xYtssrIaD-26" style="rounded=0;orthogonalLoop=1;jettySize=auto;html=1;exitX=1;exitY=0.5;exitDx=0;exitDy=0;entryX=0;entryY=0.5;entryDx=0;entryDy=0;dashed=1;" parent="yfq_gSdc3L_xYtssrIaD-1" source="yfq_gSdc3L_xYtssrIaD-3" target="yfq_gSdc3L_xYtssrIaD-7" edge="1">
          <mxGeometry relative="1" as="geometry" />
        </mxCell>
        <mxCell id="yfq_gSdc3L_xYtssrIaD-27" value="创建" style="edgeLabel;html=1;align=center;verticalAlign=middle;resizable=0;points=[];" parent="yfq_gSdc3L_xYtssrIaD-26" vertex="1" connectable="0">
          <mxGeometry x="-0.4577" y="-1" relative="1" as="geometry">
            <mxPoint as="offset" />
          </mxGeometry>
        </mxCell>
        <mxCell id="yfq_gSdc3L_xYtssrIaD-28" style="edgeStyle=none;rounded=0;orthogonalLoop=1;jettySize=auto;html=1;exitX=1;exitY=0.5;exitDx=0;exitDy=0;entryX=0;entryY=0.5;entryDx=0;entryDy=0;" parent="yfq_gSdc3L_xYtssrIaD-1" source="yfq_gSdc3L_xYtssrIaD-10" target="yfq_gSdc3L_xYtssrIaD-14" edge="1">
          <mxGeometry relative="1" as="geometry" />
        </mxCell>
        <mxCell id="yfq_gSdc3L_xYtssrIaD-29" value="是" style="edgeLabel;html=1;align=center;verticalAlign=middle;resizable=0;points=[];" parent="yfq_gSdc3L_xYtssrIaD-28" vertex="1" connectable="0">
          <mxGeometry x="-0.3143" y="-2" relative="1" as="geometry">
            <mxPoint as="offset" />
          </mxGeometry>
        </mxCell>
        <mxCell id="yfq_gSdc3L_xYtssrIaD-30" style="rounded=1;orthogonalLoop=1;jettySize=auto;html=1;exitX=0.5;exitY=1;exitDx=0;exitDy=0;entryX=0;entryY=0.5;entryDx=0;entryDy=0;edgeStyle=orthogonalEdgeStyle;" parent="yfq_gSdc3L_xYtssrIaD-1" source="yfq_gSdc3L_xYtssrIaD-10" target="yfq_gSdc3L_xYtssrIaD-15" edge="1">
          <mxGeometry relative="1" as="geometry">
            <mxPoint x="560" y="300" as="sourcePoint" />
            <mxPoint x="240" y="280" as="targetPoint" />
          </mxGeometry>
        </mxCell>
        <mxCell id="yfq_gSdc3L_xYtssrIaD-31" value="否" style="edgeLabel;html=1;align=center;verticalAlign=middle;resizable=0;points=[];" parent="yfq_gSdc3L_xYtssrIaD-30" vertex="1" connectable="0">
          <mxGeometry x="0.1894" y="2" relative="1" as="geometry">
            <mxPoint as="offset" />
          </mxGeometry>
        </mxCell>
        <mxCell id="yfq_gSdc3L_xYtssrIaD-32" style="edgeStyle=orthogonalEdgeStyle;rounded=1;orthogonalLoop=1;jettySize=auto;html=1;exitX=1;exitY=0.5;exitDx=0;exitDy=0;entryX=0;entryY=0.5;entryDx=0;entryDy=0;" parent="yfq_gSdc3L_xYtssrIaD-1" source="yfq_gSdc3L_xYtssrIaD-15" target="yfq_gSdc3L_xYtssrIaD-23" edge="1">
          <mxGeometry relative="1" as="geometry" />
        </mxCell>
        <mxCell id="yfq_gSdc3L_xYtssrIaD-33" value="匹配路线" style="edgeLabel;html=1;align=center;verticalAlign=middle;resizable=0;points=[];" parent="yfq_gSdc3L_xYtssrIaD-32" vertex="1" connectable="0">
          <mxGeometry x="-0.2778" y="1" relative="1" as="geometry">
            <mxPoint as="offset" />
          </mxGeometry>
        </mxCell>
        <mxCell id="yfq_gSdc3L_xYtssrIaD-34" style="edgeStyle=orthogonalEdgeStyle;rounded=1;orthogonalLoop=1;jettySize=auto;html=1;exitX=0.5;exitY=1;exitDx=0;exitDy=0;entryX=1;entryY=0.5;entryDx=0;entryDy=0;dashed=1;" parent="yfq_gSdc3L_xYtssrIaD-1" source="yfq_gSdc3L_xYtssrIaD-25" target="yfq_gSdc3L_xYtssrIaD-4" edge="1">
          <mxGeometry relative="1" as="geometry" />
        </mxCell>
        <mxCell id="yfq_gSdc3L_xYtssrIaD-35" value="登记" style="edgeLabel;html=1;align=center;verticalAlign=middle;resizable=0;points=[];" parent="yfq_gSdc3L_xYtssrIaD-34" vertex="1" connectable="0">
          <mxGeometry x="-0.8974" y="3" relative="1" as="geometry">
            <mxPoint as="offset" />
          </mxGeometry>
        </mxCell>
        <mxCell id="yfq_gSdc3L_xYtssrIaD-36" style="edgeStyle=orthogonalEdgeStyle;rounded=1;orthogonalLoop=1;jettySize=auto;html=1;exitX=0.75;exitY=1;exitDx=0;exitDy=0;entryX=0;entryY=0.5;entryDx=0;entryDy=0;dashed=1;" parent="yfq_gSdc3L_xYtssrIaD-1" source="yfq_gSdc3L_xYtssrIaD-5" target="yfq_gSdc3L_xYtssrIaD-17" edge="1">
          <mxGeometry relative="1" as="geometry" />
        </mxCell>
        <mxCell id="yfq_gSdc3L_xYtssrIaD-37" value="修改联系人" style="edgeLabel;html=1;align=center;verticalAlign=middle;resizable=0;points=[];" parent="yfq_gSdc3L_xYtssrIaD-36" vertex="1" connectable="0">
          <mxGeometry x="-0.1529" y="-4" relative="1" as="geometry">
            <mxPoint x="-4" y="-4" as="offset" />
          </mxGeometry>
        </mxCell>
        <mxCell id="yfq_gSdc3L_xYtssrIaD-38" style="edgeStyle=orthogonalEdgeStyle;rounded=1;orthogonalLoop=1;jettySize=auto;html=1;exitX=0.5;exitY=1;exitDx=0;exitDy=0;entryX=0;entryY=0.5;entryDx=0;entryDy=0;dashed=1;" parent="yfq_gSdc3L_xYtssrIaD-1" source="yfq_gSdc3L_xYtssrIaD-5" target="yfq_gSdc3L_xYtssrIaD-12" edge="1">
          <mxGeometry relative="1" as="geometry" />
        </mxCell>
        <mxCell id="yfq_gSdc3L_xYtssrIaD-39" value="取消、删除" style="edgeLabel;html=1;align=center;verticalAlign=middle;resizable=0;points=[];" parent="yfq_gSdc3L_xYtssrIaD-38" vertex="1" connectable="0">
          <mxGeometry x="0.2094" y="5" relative="1" as="geometry">
            <mxPoint x="13" y="5" as="offset" />
          </mxGeometry>
        </mxCell>
        <mxCell id="yfq_gSdc3L_xYtssrIaD-40" style="edgeStyle=orthogonalEdgeStyle;rounded=1;orthogonalLoop=1;jettySize=auto;html=1;exitX=1;exitY=0.5;exitDx=0;exitDy=0;entryX=0;entryY=0.5;entryDx=0;entryDy=0;" parent="yfq_gSdc3L_xYtssrIaD-1" source="yfq_gSdc3L_xYtssrIaD-12" target="yfq_gSdc3L_xYtssrIaD-18" edge="1">
          <mxGeometry relative="1" as="geometry" />
        </mxCell>
        <mxCell id="yfq_gSdc3L_xYtssrIaD-41" style="edgeStyle=orthogonalEdgeStyle;rounded=1;orthogonalLoop=1;jettySize=auto;html=1;exitX=0.5;exitY=1;exitDx=0;exitDy=0;dashed=1;" parent="1" source="yfq_gSdc3L_xYtssrIaD-23" edge="1">
          <mxGeometry relative="1" as="geometry">
            <mxPoint x="714.4705882352941" y="390" as="targetPoint" />
          </mxGeometry>
        </mxCell>
        <mxCell id="yfq_gSdc3L_xYtssrIaD-42" value="运输" style="edgeLabel;html=1;align=center;verticalAlign=middle;resizable=0;points=[];" parent="yfq_gSdc3L_xYtssrIaD-41" vertex="1" connectable="0">
          <mxGeometry x="-0.7008" relative="1" as="geometry">
            <mxPoint y="12" as="offset" />
          </mxGeometry>
        </mxCell>
        <mxCell id="yfq_gSdc3L_xYtssrIaD-43" style="edgeStyle=orthogonalEdgeStyle;rounded=1;orthogonalLoop=1;jettySize=auto;html=1;exitX=1;exitY=0.5;exitDx=0;exitDy=0;dashed=1;" parent="1" source="yfq_gSdc3L_xYtssrIaD-5" edge="1">
          <mxGeometry relative="1" as="geometry">
            <mxPoint x="270" y="489.57142857142867" as="targetPoint" />
          </mxGeometry>
        </mxCell>
        <mxCell id="yfq_gSdc3L_xYtssrIaD-44" value="修改日期时间" style="edgeLabel;html=1;align=center;verticalAlign=middle;resizable=0;points=[];" parent="yfq_gSdc3L_xYtssrIaD-43" vertex="1" connectable="0">
          <mxGeometry x="-0.3408" y="2" relative="1" as="geometry">
            <mxPoint x="3" y="2" as="offset" />
          </mxGeometry>
        </mxCell>
        <mxCell id="yfq_gSdc3L_xYtssrIaD-45" style="edgeStyle=orthogonalEdgeStyle;rounded=1;orthogonalLoop=1;jettySize=auto;html=1;exitX=1;exitY=0.5;exitDx=0;exitDy=0;" parent="1" source="yfq_gSdc3L_xYtssrIaD-11" edge="1">
          <mxGeometry relative="1" as="geometry">
            <mxPoint x="420" y="490.7692307692307" as="targetPoint" />
          </mxGeometry>
        </mxCell>
      </root>
    </mxGraphModel>
  </diagram>
  <diagram name="司机运输流程图" id="3LUhkPbio4Xbmdg_8fpc">
    <mxGraphModel dx="1278" dy="585" grid="1" gridSize="10" guides="1" tooltips="1" connect="1" arrows="1" fold="1" page="1" pageScale="1" pageWidth="1100" pageHeight="850" background="none" math="0" shadow="0">
      <root>
        <mxCell id="0" />
        <mxCell id="1" parent="0" />
        <mxCell id="2b4e8129b02d487f-1" value="司机运输流程图" style="swimlane;html=1;childLayout=stackLayout;horizontal=1;startSize=20;horizontalStack=0;rounded=0;shadow=0;labelBackgroundColor=none;strokeWidth=1;fontFamily=Verdana;fontSize=8;align=center;" parent="1" vertex="1">
          <mxGeometry x="20" y="80" width="1050" height="470" as="geometry" />
        </mxCell>
        <mxCell id="2b4e8129b02d487f-2" value="司机端" style="swimlane;html=1;startSize=20;horizontal=0;" parent="2b4e8129b02d487f-1" vertex="1">
          <mxGeometry y="20" width="1050" height="150" as="geometry" />
        </mxCell>
        <mxCell id="2b4e8129b02d487f-18" style="edgeStyle=orthogonalEdgeStyle;rounded=0;html=1;labelBackgroundColor=none;startArrow=none;startFill=0;startSize=5;endArrow=classicThin;endFill=1;endSize=5;jettySize=auto;orthogonalLoop=1;strokeWidth=1;fontFamily=Verdana;fontSize=8" parent="2b4e8129b02d487f-2" source="2b4e8129b02d487f-5" target="2b4e8129b02d487f-6" edge="1">
          <mxGeometry relative="1" as="geometry" />
        </mxCell>
        <mxCell id="2b4e8129b02d487f-5" value="开始承运" style="ellipse;whiteSpace=wrap;html=1;rounded=0;shadow=0;labelBackgroundColor=none;strokeWidth=1;fontFamily=Verdana;fontSize=8;align=center;" parent="2b4e8129b02d487f-2" vertex="1">
          <mxGeometry x="60" y="13.5" width="30" height="30" as="geometry" />
        </mxCell>
        <mxCell id="7pYyRJchcxE1X7hOhvNZ-5" style="edgeStyle=orthogonalEdgeStyle;rounded=0;orthogonalLoop=1;jettySize=auto;html=1;exitX=0.5;exitY=1;exitDx=0;exitDy=0;entryX=0;entryY=0.5;entryDx=0;entryDy=0;dashed=1;" parent="2b4e8129b02d487f-2" source="2b4e8129b02d487f-6" target="7pYyRJchcxE1X7hOhvNZ-4" edge="1">
          <mxGeometry relative="1" as="geometry" />
        </mxCell>
        <mxCell id="7pYyRJchcxE1X7hOhvNZ-13" style="edgeStyle=orthogonalEdgeStyle;rounded=0;orthogonalLoop=1;jettySize=auto;html=1;exitX=1;exitY=0.5;exitDx=0;exitDy=0;entryX=0;entryY=0.5;entryDx=0;entryDy=0;" parent="2b4e8129b02d487f-2" source="2b4e8129b02d487f-6" target="2b4e8129b02d487f-7" edge="1">
          <mxGeometry relative="1" as="geometry" />
        </mxCell>
        <mxCell id="2b4e8129b02d487f-6" value="装车" style="rounded=1;whiteSpace=wrap;html=1;shadow=0;labelBackgroundColor=none;strokeWidth=1;fontFamily=Verdana;fontSize=8;align=center;" parent="2b4e8129b02d487f-2" vertex="1">
          <mxGeometry x="120" y="9.999999999999972" width="70" height="37" as="geometry" />
        </mxCell>
        <mxCell id="7pYyRJchcxE1X7hOhvNZ-14" style="edgeStyle=orthogonalEdgeStyle;rounded=0;orthogonalLoop=1;jettySize=auto;html=1;exitX=1;exitY=0.5;exitDx=0;exitDy=0;entryX=0;entryY=0.5;entryDx=0;entryDy=0;" parent="2b4e8129b02d487f-2" source="2b4e8129b02d487f-7" target="7pYyRJchcxE1X7hOhvNZ-12" edge="1">
          <mxGeometry relative="1" as="geometry" />
        </mxCell>
        <mxCell id="7pYyRJchcxE1X7hOhvNZ-28" style="edgeStyle=orthogonalEdgeStyle;rounded=0;orthogonalLoop=1;jettySize=auto;html=1;exitX=0.5;exitY=1;exitDx=0;exitDy=0;entryX=0;entryY=0.5;entryDx=0;entryDy=0;dashed=1;" parent="2b4e8129b02d487f-2" source="2b4e8129b02d487f-7" target="7pYyRJchcxE1X7hOhvNZ-27" edge="1">
          <mxGeometry relative="1" as="geometry" />
        </mxCell>
        <mxCell id="2b4e8129b02d487f-7" value="配送" style="rounded=1;whiteSpace=wrap;html=1;shadow=0;labelBackgroundColor=none;strokeWidth=1;fontFamily=Verdana;fontSize=8;align=center;" parent="2b4e8129b02d487f-2" vertex="1">
          <mxGeometry x="230" y="9.999999999999972" width="70" height="37" as="geometry" />
        </mxCell>
        <mxCell id="2b4e8129b02d487f-11" value="已完成" style="ellipse;whiteSpace=wrap;html=1;rounded=0;shadow=0;labelBackgroundColor=none;strokeWidth=2;fontFamily=Verdana;fontSize=8;align=center;" parent="2b4e8129b02d487f-2" vertex="1">
          <mxGeometry x="950" y="13.5" width="30" height="30" as="geometry" />
        </mxCell>
        <mxCell id="7pYyRJchcxE1X7hOhvNZ-1" value="确认装车" style="rounded=1;whiteSpace=wrap;html=1;shadow=0;labelBackgroundColor=none;strokeWidth=1;fontFamily=Verdana;fontSize=8;align=center;" parent="2b4e8129b02d487f-2" vertex="1">
          <mxGeometry x="180" y="70" width="60" height="23.5" as="geometry" />
        </mxCell>
        <mxCell id="7pYyRJchcxE1X7hOhvNZ-3" style="edgeStyle=orthogonalEdgeStyle;rounded=0;orthogonalLoop=1;jettySize=auto;html=1;exitX=0.5;exitY=1;exitDx=0;exitDy=0;entryX=0;entryY=0.5;entryDx=0;entryDy=0;dashed=1;" parent="2b4e8129b02d487f-2" source="2b4e8129b02d487f-6" target="7pYyRJchcxE1X7hOhvNZ-1" edge="1">
          <mxGeometry relative="1" as="geometry">
            <mxPoint x="155" y="80" as="targetPoint" />
          </mxGeometry>
        </mxCell>
        <mxCell id="7pYyRJchcxE1X7hOhvNZ-7" style="edgeStyle=orthogonalEdgeStyle;rounded=0;orthogonalLoop=1;jettySize=auto;html=1;exitX=1;exitY=0.5;exitDx=0;exitDy=0;dashed=1;" parent="2b4e8129b02d487f-2" source="7pYyRJchcxE1X7hOhvNZ-4" edge="1">
          <mxGeometry relative="1" as="geometry">
            <mxPoint x="255" y="50" as="targetPoint" />
            <Array as="points">
              <mxPoint x="255" y="112" />
              <mxPoint x="255" y="50" />
            </Array>
          </mxGeometry>
        </mxCell>
        <mxCell id="7pYyRJchcxE1X7hOhvNZ-4" value="任务装车" style="rounded=1;whiteSpace=wrap;html=1;shadow=0;labelBackgroundColor=none;strokeWidth=1;fontFamily=Verdana;fontSize=8;align=center;" parent="2b4e8129b02d487f-2" vertex="1">
          <mxGeometry x="180" y="100" width="60" height="23.5" as="geometry" />
        </mxCell>
        <mxCell id="7pYyRJchcxE1X7hOhvNZ-18" style="edgeStyle=orthogonalEdgeStyle;rounded=0;orthogonalLoop=1;jettySize=auto;html=1;exitX=1;exitY=0.5;exitDx=0;exitDy=0;entryX=0;entryY=0.5;entryDx=0;entryDy=0;" parent="2b4e8129b02d487f-2" source="7pYyRJchcxE1X7hOhvNZ-12" target="7pYyRJchcxE1X7hOhvNZ-17" edge="1">
          <mxGeometry relative="1" as="geometry" />
        </mxCell>
        <mxCell id="7pYyRJchcxE1X7hOhvNZ-54" style="edgeStyle=orthogonalEdgeStyle;rounded=0;orthogonalLoop=1;jettySize=auto;html=1;exitX=0.5;exitY=1;exitDx=0;exitDy=0;entryX=0;entryY=0.5;entryDx=0;entryDy=0;dashed=1;" parent="2b4e8129b02d487f-2" source="7pYyRJchcxE1X7hOhvNZ-12" target="7pYyRJchcxE1X7hOhvNZ-52" edge="1">
          <mxGeometry relative="1" as="geometry" />
        </mxCell>
        <mxCell id="7pYyRJchcxE1X7hOhvNZ-55" style="edgeStyle=orthogonalEdgeStyle;rounded=0;orthogonalLoop=1;jettySize=auto;html=1;exitX=0.5;exitY=1;exitDx=0;exitDy=0;entryX=0;entryY=0.5;entryDx=0;entryDy=0;dashed=1;" parent="2b4e8129b02d487f-2" source="7pYyRJchcxE1X7hOhvNZ-12" target="7pYyRJchcxE1X7hOhvNZ-53" edge="1">
          <mxGeometry relative="1" as="geometry" />
        </mxCell>
        <mxCell id="7pYyRJchcxE1X7hOhvNZ-12" value="回收" style="rounded=1;whiteSpace=wrap;html=1;shadow=0;labelBackgroundColor=none;strokeWidth=1;fontFamily=Verdana;fontSize=8;align=center;" parent="2b4e8129b02d487f-2" vertex="1">
          <mxGeometry x="345" y="9.999999999999972" width="70" height="37" as="geometry" />
        </mxCell>
        <mxCell id="7pYyRJchcxE1X7hOhvNZ-62" style="edgeStyle=orthogonalEdgeStyle;rounded=0;orthogonalLoop=1;jettySize=auto;html=1;exitX=0.5;exitY=1;exitDx=0;exitDy=0;entryX=0;entryY=0.5;entryDx=0;entryDy=0;dashed=1;" parent="2b4e8129b02d487f-2" source="7pYyRJchcxE1X7hOhvNZ-17" target="7pYyRJchcxE1X7hOhvNZ-59" edge="1">
          <mxGeometry relative="1" as="geometry" />
        </mxCell>
        <mxCell id="7pYyRJchcxE1X7hOhvNZ-77" style="edgeStyle=orthogonalEdgeStyle;rounded=0;orthogonalLoop=1;jettySize=auto;html=1;exitX=1;exitY=0.5;exitDx=0;exitDy=0;" parent="2b4e8129b02d487f-2" source="7pYyRJchcxE1X7hOhvNZ-17" target="7pYyRJchcxE1X7hOhvNZ-76" edge="1">
          <mxGeometry relative="1" as="geometry" />
        </mxCell>
        <mxCell id="7pYyRJchcxE1X7hOhvNZ-17" value="收衣/还衣" style="rounded=1;whiteSpace=wrap;html=1;shadow=0;labelBackgroundColor=none;strokeWidth=1;fontFamily=Verdana;fontSize=8;align=center;" parent="2b4e8129b02d487f-2" vertex="1">
          <mxGeometry x="465" y="9.999999999999972" width="70" height="37" as="geometry" />
        </mxCell>
        <mxCell id="7pYyRJchcxE1X7hOhvNZ-65" style="edgeStyle=orthogonalEdgeStyle;rounded=0;orthogonalLoop=1;jettySize=auto;html=1;exitX=1;exitY=0.5;exitDx=0;exitDy=0;entryX=0;entryY=0.5;entryDx=0;entryDy=0;" parent="2b4e8129b02d487f-2" source="7pYyRJchcxE1X7hOhvNZ-21" target="7pYyRJchcxE1X7hOhvNZ-22" edge="1">
          <mxGeometry relative="1" as="geometry" />
        </mxCell>
        <mxCell id="7pYyRJchcxE1X7hOhvNZ-68" style="edgeStyle=orthogonalEdgeStyle;rounded=0;orthogonalLoop=1;jettySize=auto;html=1;exitX=0.5;exitY=1;exitDx=0;exitDy=0;entryX=0;entryY=0.5;entryDx=0;entryDy=0;dashed=1;" parent="2b4e8129b02d487f-2" source="7pYyRJchcxE1X7hOhvNZ-21" target="7pYyRJchcxE1X7hOhvNZ-66" edge="1">
          <mxGeometry relative="1" as="geometry" />
        </mxCell>
        <mxCell id="7pYyRJchcxE1X7hOhvNZ-21" value="灵活事项" style="rounded=1;whiteSpace=wrap;html=1;shadow=0;labelBackgroundColor=none;strokeWidth=1;fontFamily=Verdana;fontSize=8;align=center;" parent="2b4e8129b02d487f-2" vertex="1">
          <mxGeometry x="700" y="9.999999999999972" width="70" height="37" as="geometry" />
        </mxCell>
        <mxCell id="7pYyRJchcxE1X7hOhvNZ-71" style="edgeStyle=orthogonalEdgeStyle;rounded=0;orthogonalLoop=1;jettySize=auto;html=1;exitX=0.5;exitY=1;exitDx=0;exitDy=0;entryX=0;entryY=0.5;entryDx=0;entryDy=0;dashed=1;" parent="2b4e8129b02d487f-2" source="7pYyRJchcxE1X7hOhvNZ-22" target="7pYyRJchcxE1X7hOhvNZ-70" edge="1">
          <mxGeometry relative="1" as="geometry" />
        </mxCell>
        <mxCell id="7pYyRJchcxE1X7hOhvNZ-73" style="edgeStyle=orthogonalEdgeStyle;rounded=0;orthogonalLoop=1;jettySize=auto;html=1;exitX=1;exitY=0.5;exitDx=0;exitDy=0;entryX=0;entryY=0.5;entryDx=0;entryDy=0;" parent="2b4e8129b02d487f-2" source="7pYyRJchcxE1X7hOhvNZ-22" target="2b4e8129b02d487f-11" edge="1">
          <mxGeometry relative="1" as="geometry" />
        </mxCell>
        <mxCell id="7pYyRJchcxE1X7hOhvNZ-22" value="回仓" style="rounded=1;whiteSpace=wrap;html=1;shadow=0;labelBackgroundColor=none;strokeWidth=1;fontFamily=Verdana;fontSize=8;align=center;" parent="2b4e8129b02d487f-2" vertex="1">
          <mxGeometry x="810" y="9.999999999999972" width="70" height="37" as="geometry" />
        </mxCell>
        <mxCell id="7pYyRJchcxE1X7hOhvNZ-27" value="异常上报" style="rounded=1;whiteSpace=wrap;html=1;shadow=0;labelBackgroundColor=none;strokeWidth=1;fontFamily=Verdana;fontSize=8;align=center;" parent="2b4e8129b02d487f-2" vertex="1">
          <mxGeometry x="285" y="70" width="60" height="23.5" as="geometry" />
        </mxCell>
        <mxCell id="7pYyRJchcxE1X7hOhvNZ-52" value="确认回收" style="rounded=1;whiteSpace=wrap;html=1;shadow=0;labelBackgroundColor=none;strokeWidth=1;fontFamily=Verdana;fontSize=8;align=center;" parent="2b4e8129b02d487f-2" vertex="1">
          <mxGeometry x="405" y="70" width="60" height="23.5" as="geometry" />
        </mxCell>
        <mxCell id="7pYyRJchcxE1X7hOhvNZ-53" value="任务回收" style="rounded=1;whiteSpace=wrap;html=1;shadow=0;labelBackgroundColor=none;strokeWidth=1;fontFamily=Verdana;fontSize=8;align=center;" parent="2b4e8129b02d487f-2" vertex="1">
          <mxGeometry x="405" y="100" width="60" height="23.5" as="geometry" />
        </mxCell>
        <mxCell id="7pYyRJchcxE1X7hOhvNZ-31" style="edgeStyle=orthogonalEdgeStyle;rounded=0;orthogonalLoop=1;jettySize=auto;html=1;exitX=1;exitY=0.5;exitDx=0;exitDy=0;dashed=1;entryX=0.355;entryY=1.001;entryDx=0;entryDy=0;entryPerimeter=0;" parent="2b4e8129b02d487f-2" source="7pYyRJchcxE1X7hOhvNZ-27" target="7pYyRJchcxE1X7hOhvNZ-12" edge="1">
          <mxGeometry relative="1" as="geometry">
            <mxPoint x="375" y="82" as="targetPoint" />
          </mxGeometry>
        </mxCell>
        <mxCell id="7pYyRJchcxE1X7hOhvNZ-81" style="edgeStyle=orthogonalEdgeStyle;rounded=0;orthogonalLoop=1;jettySize=auto;html=1;exitX=1;exitY=0.5;exitDx=0;exitDy=0;entryX=0.366;entryY=1.098;entryDx=0;entryDy=0;entryPerimeter=0;dashed=1;" parent="2b4e8129b02d487f-2" source="7pYyRJchcxE1X7hOhvNZ-59" target="7pYyRJchcxE1X7hOhvNZ-76" edge="1">
          <mxGeometry relative="1" as="geometry" />
        </mxCell>
        <mxCell id="7pYyRJchcxE1X7hOhvNZ-59" value="确认完成" style="rounded=1;whiteSpace=wrap;html=1;shadow=0;labelBackgroundColor=none;strokeWidth=1;fontFamily=Verdana;fontSize=8;align=center;" parent="2b4e8129b02d487f-2" vertex="1">
          <mxGeometry x="525" y="70" width="60" height="23.5" as="geometry" />
        </mxCell>
        <mxCell id="7pYyRJchcxE1X7hOhvNZ-63" style="edgeStyle=orthogonalEdgeStyle;rounded=0;orthogonalLoop=1;jettySize=auto;html=1;exitX=1;exitY=0.5;exitDx=0;exitDy=0;dashed=1;entryX=0.418;entryY=0.997;entryDx=0;entryDy=0;entryPerimeter=0;" parent="2b4e8129b02d487f-2" source="7pYyRJchcxE1X7hOhvNZ-82" target="7pYyRJchcxE1X7hOhvNZ-21" edge="1">
          <mxGeometry relative="1" as="geometry">
            <mxPoint x="730" y="60" as="targetPoint" />
            <mxPoint x="710" y="81.75" as="sourcePoint" />
          </mxGeometry>
        </mxCell>
        <mxCell id="7pYyRJchcxE1X7hOhvNZ-69" style="edgeStyle=orthogonalEdgeStyle;rounded=0;orthogonalLoop=1;jettySize=auto;html=1;exitX=1;exitY=0.5;exitDx=0;exitDy=0;entryX=0.397;entryY=0.997;entryDx=0;entryDy=0;entryPerimeter=0;dashed=1;" parent="2b4e8129b02d487f-2" source="7pYyRJchcxE1X7hOhvNZ-66" target="7pYyRJchcxE1X7hOhvNZ-22" edge="1">
          <mxGeometry relative="1" as="geometry" />
        </mxCell>
        <mxCell id="7pYyRJchcxE1X7hOhvNZ-66" value="确认完成" style="rounded=1;whiteSpace=wrap;html=1;shadow=0;labelBackgroundColor=none;strokeWidth=1;fontFamily=Verdana;fontSize=8;align=center;" parent="2b4e8129b02d487f-2" vertex="1">
          <mxGeometry x="760" y="70" width="60" height="23.5" as="geometry" />
        </mxCell>
        <mxCell id="7pYyRJchcxE1X7hOhvNZ-72" style="edgeStyle=orthogonalEdgeStyle;rounded=0;orthogonalLoop=1;jettySize=auto;html=1;exitX=1;exitY=0.5;exitDx=0;exitDy=0;dashed=1;" parent="2b4e8129b02d487f-2" source="7pYyRJchcxE1X7hOhvNZ-70" target="2b4e8129b02d487f-11" edge="1">
          <mxGeometry relative="1" as="geometry" />
        </mxCell>
        <mxCell id="7pYyRJchcxE1X7hOhvNZ-70" value="确认回仓" style="rounded=1;whiteSpace=wrap;html=1;shadow=0;labelBackgroundColor=none;strokeWidth=1;fontFamily=Verdana;fontSize=8;align=center;" parent="2b4e8129b02d487f-2" vertex="1">
          <mxGeometry x="870" y="70" width="60" height="23.5" as="geometry" />
        </mxCell>
        <mxCell id="7pYyRJchcxE1X7hOhvNZ-78" style="edgeStyle=orthogonalEdgeStyle;rounded=0;orthogonalLoop=1;jettySize=auto;html=1;exitX=1;exitY=0.5;exitDx=0;exitDy=0;entryX=0;entryY=0.5;entryDx=0;entryDy=0;" parent="2b4e8129b02d487f-2" source="7pYyRJchcxE1X7hOhvNZ-76" target="7pYyRJchcxE1X7hOhvNZ-21" edge="1">
          <mxGeometry relative="1" as="geometry" />
        </mxCell>
        <mxCell id="7pYyRJchcxE1X7hOhvNZ-83" style="edgeStyle=orthogonalEdgeStyle;rounded=0;orthogonalLoop=1;jettySize=auto;html=1;exitX=0.5;exitY=1;exitDx=0;exitDy=0;entryX=0;entryY=0.5;entryDx=0;entryDy=0;dashed=1;" parent="2b4e8129b02d487f-2" source="7pYyRJchcxE1X7hOhvNZ-76" target="7pYyRJchcxE1X7hOhvNZ-82" edge="1">
          <mxGeometry relative="1" as="geometry" />
        </mxCell>
        <mxCell id="7pYyRJchcxE1X7hOhvNZ-76" value="......." style="text;html=1;strokeColor=none;fillColor=none;align=center;verticalAlign=middle;whiteSpace=wrap;rounded=0;" parent="2b4e8129b02d487f-2" vertex="1">
          <mxGeometry x="585" y="13.5" width="60" height="30" as="geometry" />
        </mxCell>
        <mxCell id="7pYyRJchcxE1X7hOhvNZ-82" value="确认完成" style="rounded=1;whiteSpace=wrap;html=1;shadow=0;labelBackgroundColor=none;strokeWidth=1;fontFamily=Verdana;fontSize=8;align=center;" parent="2b4e8129b02d487f-2" vertex="1">
          <mxGeometry x="645" y="70" width="60" height="23.5" as="geometry" />
        </mxCell>
        <mxCell id="2b4e8129b02d487f-3" value="洁净师端" style="swimlane;html=1;startSize=20;horizontal=0;" parent="2b4e8129b02d487f-1" vertex="1">
          <mxGeometry y="170" width="1050" height="150" as="geometry" />
        </mxCell>
        <mxCell id="2b4e8129b02d487f-12" value="确认签收" style="rounded=1;whiteSpace=wrap;html=1;shadow=0;labelBackgroundColor=none;strokeWidth=1;fontFamily=Verdana;fontSize=8;align=center;" parent="2b4e8129b02d487f-3" vertex="1">
          <mxGeometry x="285" y="56.5" width="60" height="37" as="geometry" />
        </mxCell>
        <mxCell id="2b4e8129b02d487f-4" value="仓储管理员端" style="swimlane;html=1;startSize=20;horizontal=0;" parent="2b4e8129b02d487f-1" vertex="1">
          <mxGeometry y="320" width="1050" height="150" as="geometry" />
        </mxCell>
        <mxCell id="7pYyRJchcxE1X7hOhvNZ-85" value="回库登记" style="rounded=1;whiteSpace=wrap;html=1;shadow=0;labelBackgroundColor=none;strokeWidth=1;fontFamily=Verdana;fontSize=8;align=center;" parent="2b4e8129b02d487f-4" vertex="1">
          <mxGeometry x="830" y="60.5" width="70" height="37" as="geometry" />
        </mxCell>
        <mxCell id="7pYyRJchcxE1X7hOhvNZ-26" style="edgeStyle=orthogonalEdgeStyle;rounded=0;orthogonalLoop=1;jettySize=auto;html=1;exitX=0.5;exitY=1;exitDx=0;exitDy=0;entryX=0;entryY=0.5;entryDx=0;entryDy=0;dashed=1;" parent="2b4e8129b02d487f-1" source="2b4e8129b02d487f-7" target="2b4e8129b02d487f-12" edge="1">
          <mxGeometry relative="1" as="geometry">
            <mxPoint x="265.5882352941178" y="220" as="targetPoint" />
            <Array as="points">
              <mxPoint x="265" y="245" />
            </Array>
          </mxGeometry>
        </mxCell>
        <mxCell id="7pYyRJchcxE1X7hOhvNZ-30" style="edgeStyle=orthogonalEdgeStyle;rounded=0;orthogonalLoop=1;jettySize=auto;html=1;exitX=1;exitY=0.5;exitDx=0;exitDy=0;entryX=0.352;entryY=1.005;entryDx=0;entryDy=0;entryPerimeter=0;dashed=1;" parent="2b4e8129b02d487f-1" source="2b4e8129b02d487f-12" target="7pYyRJchcxE1X7hOhvNZ-12" edge="1">
          <mxGeometry relative="1" as="geometry" />
        </mxCell>
        <mxCell id="7pYyRJchcxE1X7hOhvNZ-8" style="edgeStyle=orthogonalEdgeStyle;rounded=0;orthogonalLoop=1;jettySize=auto;html=1;exitX=1;exitY=0.5;exitDx=0;exitDy=0;dashed=1;" parent="1" source="7pYyRJchcxE1X7hOhvNZ-1" edge="1">
          <mxGeometry relative="1" as="geometry">
            <mxPoint x="275" y="150" as="targetPoint" />
          </mxGeometry>
        </mxCell>
        <mxCell id="7pYyRJchcxE1X7hOhvNZ-56" style="edgeStyle=orthogonalEdgeStyle;rounded=0;orthogonalLoop=1;jettySize=auto;html=1;exitX=1;exitY=0.5;exitDx=0;exitDy=0;dashed=1;" parent="1" source="7pYyRJchcxE1X7hOhvNZ-52" edge="1">
          <mxGeometry relative="1" as="geometry">
            <mxPoint x="505" y="150" as="targetPoint" />
          </mxGeometry>
        </mxCell>
        <mxCell id="7pYyRJchcxE1X7hOhvNZ-57" style="edgeStyle=orthogonalEdgeStyle;rounded=0;orthogonalLoop=1;jettySize=auto;html=1;exitX=1;exitY=0.5;exitDx=0;exitDy=0;dashed=1;" parent="1" source="7pYyRJchcxE1X7hOhvNZ-53" edge="1">
          <mxGeometry relative="1" as="geometry">
            <mxPoint x="505" y="150" as="targetPoint" />
          </mxGeometry>
        </mxCell>
        <mxCell id="7pYyRJchcxE1X7hOhvNZ-84" style="edgeStyle=orthogonalEdgeStyle;rounded=0;orthogonalLoop=1;jettySize=auto;html=1;exitX=1;exitY=0.5;exitDx=0;exitDy=0;" parent="1" source="2b4e8129b02d487f-11" edge="1">
          <mxGeometry relative="1" as="geometry">
            <mxPoint x="880" y="460" as="targetPoint" />
          </mxGeometry>
        </mxCell>
      </root>
    </mxGraphModel>
  </diagram>
</mxfile>
